<?xml version="1.0" encoding="UTF-8"?>
<svg xmlns="http://www.w3.org/2000/svg" xmlns:xlink="http://www.w3.org/1999/xlink" width="854" height="480" viewBox="0 0 854 480">
<defs>
<g>
<g id="glyph-0-0">
<path d="M 8.640625 -6.882812 L 8.144531 -6.882812 C 8.019531 -7.230469 7.800781 -7.585938 7.492188 -7.945312 C 7.183594 -8.304688 6.878906 -8.515625 6.574219 -8.582031 C 6.445312 -8.609375 6.265625 -8.628906 6.03125 -8.636719 C 5.800781 -8.644531 5.609375 -8.644531 5.457031 -8.644531 L 4.113281 -8.644531 L 4.113281 -5.085938 L 5.066406 -5.085938 C 5.304688 -5.085938 5.519531 -5.113281 5.714844 -5.167969 C 5.910156 -5.226562 6.089844 -5.335938 6.25 -5.496094 C 6.351562 -5.59375 6.449219 -5.769531 6.550781 -6.023438 C 6.65625 -6.273438 6.722656 -6.492188 6.75 -6.679688 L 7.246094 -6.679688 L 7.246094 -2.824219 L 6.75 -2.824219 C 6.726562 -3.007812 6.660156 -3.238281 6.550781 -3.511719 C 6.445312 -3.789062 6.34375 -3.976562 6.25 -4.082031 C 6.105469 -4.238281 5.9375 -4.34375 5.742188 -4.40625 C 5.546875 -4.460938 5.320312 -4.492188 5.066406 -4.492188 L 4.113281 -4.492188 L 4.113281 -1.828125 C 4.113281 -1.550781 4.136719 -1.332031 4.175781 -1.167969 C 4.21875 -1.007812 4.292969 -0.882812 4.40625 -0.792969 C 4.515625 -0.710938 4.664062 -0.65625 4.851562 -0.632812 C 5.042969 -0.605469 5.300781 -0.59375 5.625 -0.59375 C 5.777344 -0.59375 5.960938 -0.59375 6.171875 -0.597656 C 6.382812 -0.601562 6.570312 -0.617188 6.730469 -0.636719 C 6.914062 -0.660156 7.085938 -0.691406 7.242188 -0.734375 C 7.402344 -0.777344 7.519531 -0.84375 7.597656 -0.925781 C 7.804688 -1.136719 8.039062 -1.460938 8.300781 -1.898438 C 8.5625 -2.335938 8.734375 -2.660156 8.816406 -2.878906 L 9.289062 -2.878906 L 9.113281 0 L 0.449219 0 L 0.449219 -0.507812 C 0.570312 -0.515625 0.734375 -0.535156 0.945312 -0.558594 C 1.152344 -0.585938 1.300781 -0.617188 1.386719 -0.652344 C 1.550781 -0.71875 1.664062 -0.808594 1.71875 -0.914062 C 1.773438 -1.019531 1.804688 -1.15625 1.804688 -1.320312 L 1.804688 -7.839844 C 1.804688 -7.996094 1.78125 -8.125 1.730469 -8.226562 C 1.683594 -8.328125 1.570312 -8.421875 1.386719 -8.503906 C 1.273438 -8.554688 1.117188 -8.601562 0.910156 -8.644531 C 0.707031 -8.6875 0.554688 -8.71875 0.449219 -8.730469 L 0.449219 -9.238281 L 8.640625 -9.238281 Z "/>
</g>
<g id="glyph-0-1">
<path d="M 7.800781 0 L 3.730469 0 L 3.730469 -0.476562 C 3.945312 -0.488281 4.121094 -0.507812 4.265625 -0.53125 C 4.410156 -0.554688 4.480469 -0.601562 4.480469 -0.675781 C 4.480469 -0.710938 4.460938 -0.765625 4.425781 -0.839844 C 4.390625 -0.914062 4.34375 -0.996094 4.285156 -1.085938 C 4.203125 -1.222656 4.0625 -1.4375 3.859375 -1.726562 C 3.65625 -2.019531 3.464844 -2.289062 3.289062 -2.535156 C 3.035156 -2.246094 2.824219 -1.996094 2.65625 -1.785156 C 2.488281 -1.578125 2.308594 -1.351562 2.121094 -1.113281 C 2.054688 -1.035156 2.011719 -0.964844 1.984375 -0.898438 C 1.957031 -0.832031 1.945312 -0.792969 1.945312 -0.78125 C 1.945312 -0.679688 2.015625 -0.605469 2.15625 -0.554688 C 2.296875 -0.5 2.46875 -0.476562 2.664062 -0.476562 L 2.664062 0 L 0.0195312 0 L 0.0195312 -0.476562 C 0.371094 -0.550781 0.652344 -0.667969 0.863281 -0.828125 C 1.074219 -0.988281 1.214844 -1.109375 1.289062 -1.199219 C 1.609375 -1.539062 1.875 -1.820312 2.097656 -2.046875 C 2.316406 -2.269531 2.609375 -2.585938 2.980469 -2.988281 C 2.730469 -3.332031 2.433594 -3.75 2.082031 -4.242188 C 1.730469 -4.734375 1.4375 -5.140625 1.203125 -5.457031 C 1.085938 -5.613281 0.941406 -5.730469 0.773438 -5.816406 C 0.601562 -5.902344 0.382812 -5.957031 0.109375 -5.984375 L 0.109375 -6.457031 L 4.089844 -6.457031 L 4.089844 -5.984375 C 3.945312 -5.984375 3.804688 -5.972656 3.667969 -5.957031 C 3.527344 -5.941406 3.457031 -5.910156 3.457031 -5.867188 C 3.457031 -5.832031 3.46875 -5.789062 3.492188 -5.734375 C 3.511719 -5.683594 3.542969 -5.628906 3.574219 -5.574219 C 3.65625 -5.433594 3.789062 -5.230469 3.964844 -4.960938 C 4.140625 -4.691406 4.332031 -4.410156 4.535156 -4.117188 C 4.730469 -4.355469 4.894531 -4.550781 5.027344 -4.699219 C 5.160156 -4.851562 5.332031 -5.066406 5.539062 -5.34375 C 5.617188 -5.449219 5.667969 -5.527344 5.6875 -5.578125 C 5.707031 -5.632812 5.714844 -5.664062 5.714844 -5.675781 C 5.714844 -5.75 5.667969 -5.816406 5.574219 -5.875 C 5.480469 -5.933594 5.300781 -5.96875 5.027344 -5.984375 L 5.027344 -6.457031 L 7.617188 -6.457031 L 7.617188 -5.984375 C 7.40625 -5.949219 7.199219 -5.875 7 -5.769531 C 6.800781 -5.660156 6.589844 -5.492188 6.375 -5.261719 C 6.035156 -4.910156 5.789062 -4.652344 5.636719 -4.488281 C 5.480469 -4.328125 5.226562 -4.054688 4.871094 -3.679688 C 5.070312 -3.398438 5.359375 -2.988281 5.738281 -2.449219 C 6.113281 -1.910156 6.4375 -1.457031 6.710938 -1.085938 C 6.828125 -0.921875 6.960938 -0.789062 7.105469 -0.683594 C 7.25 -0.578125 7.484375 -0.511719 7.800781 -0.476562 Z "/>
</g>
<g id="glyph-0-2">
<path d="M 8.308594 -3.171875 C 8.308594 -2.253906 8 -1.46875 7.390625 -0.8125 C 6.78125 -0.160156 6.003906 0.167969 5.070312 0.167969 C 4.652344 0.167969 4.316406 0.125 4.054688 0.0429688 C 3.796875 -0.0429688 3.582031 -0.144531 3.410156 -0.265625 L 3.359375 -0.265625 L 3.359375 1.5625 C 3.359375 1.714844 3.394531 1.847656 3.460938 1.960938 C 3.527344 2.074219 3.621094 2.15625 3.742188 2.207031 C 3.859375 2.253906 4.027344 2.296875 4.242188 2.335938 C 4.457031 2.375 4.636719 2.398438 4.777344 2.410156 L 4.777344 2.890625 L 0.0703125 2.890625 L 0.0703125 2.410156 C 0.179688 2.398438 0.316406 2.382812 0.480469 2.359375 C 0.648438 2.335938 0.769531 2.3125 0.851562 2.285156 C 0.992188 2.238281 1.085938 2.15625 1.136719 2.039062 C 1.1875 1.925781 1.210938 1.792969 1.210938 1.648438 L 1.210938 -5.011719 C 1.199219 -5.15625 1.164062 -5.28125 1.109375 -5.390625 C 1.054688 -5.5 0.96875 -5.59375 0.851562 -5.675781 C 0.765625 -5.734375 0.652344 -5.78125 0.507812 -5.816406 C 0.363281 -5.855469 0.222656 -5.878906 0.0859375 -5.890625 L 0.0859375 -6.367188 L 3.261719 -6.535156 L 3.359375 -6.453125 L 3.359375 -5.730469 L 3.410156 -5.714844 C 3.699219 -6.007812 4.015625 -6.234375 4.363281 -6.394531 C 4.710938 -6.554688 5.058594 -6.632812 5.402344 -6.632812 C 6.296875 -6.632812 7.007812 -6.316406 7.527344 -5.679688 C 8.046875 -5.042969 8.308594 -4.207031 8.308594 -3.171875 M 5.96875 -3.144531 C 5.96875 -3.46875 5.945312 -3.78125 5.898438 -4.078125 C 5.851562 -4.375 5.765625 -4.640625 5.644531 -4.875 C 5.527344 -5.109375 5.375 -5.296875 5.179688 -5.4375 C 4.988281 -5.574219 4.753906 -5.644531 4.476562 -5.644531 C 4.195312 -5.644531 3.96875 -5.59375 3.800781 -5.496094 C 3.632812 -5.398438 3.484375 -5.273438 3.359375 -5.117188 L 3.359375 -1.425781 C 3.386719 -1.339844 3.433594 -1.226562 3.507812 -1.089844 C 3.582031 -0.953125 3.65625 -0.84375 3.730469 -0.761719 C 3.835938 -0.644531 3.960938 -0.558594 4.101562 -0.5 C 4.238281 -0.445312 4.390625 -0.417969 4.554688 -0.417969 C 4.984375 -0.417969 5.324219 -0.648438 5.582031 -1.109375 C 5.839844 -1.570312 5.96875 -2.25 5.96875 -3.144531 Z "/>
</g>
<g id="glyph-0-3">
<path d="M 7.820312 -0.136719 C 7.628906 -0.0546875 7.402344 0.0234375 7.144531 0.0898438 C 6.882812 0.160156 6.609375 0.195312 6.316406 0.195312 C 5.785156 0.195312 5.394531 0.117188 5.140625 -0.0429688 C 4.890625 -0.199219 4.71875 -0.425781 4.628906 -0.722656 L 4.589844 -0.722656 C 4.441406 -0.574219 4.300781 -0.449219 4.164062 -0.34375 C 4.027344 -0.242188 3.878906 -0.152344 3.722656 -0.078125 C 3.519531 0.015625 3.320312 0.0898438 3.132812 0.136719 C 2.945312 0.183594 2.679688 0.207031 2.339844 0.207031 C 1.835938 0.207031 1.40625 0.0585938 1.050781 -0.238281 C 0.691406 -0.535156 0.515625 -0.929688 0.515625 -1.421875 C 0.515625 -1.703125 0.554688 -1.945312 0.632812 -2.140625 C 0.710938 -2.339844 0.820312 -2.515625 0.964844 -2.667969 C 1.09375 -2.804688 1.246094 -2.921875 1.417969 -3.011719 C 1.589844 -3.105469 1.777344 -3.1875 1.980469 -3.265625 C 2.371094 -3.410156 2.84375 -3.558594 3.390625 -3.714844 C 3.9375 -3.867188 4.335938 -4.007812 4.589844 -4.128906 L 4.589844 -4.753906 C 4.589844 -4.859375 4.582031 -5.003906 4.5625 -5.183594 C 4.546875 -5.359375 4.507812 -5.511719 4.453125 -5.632812 C 4.390625 -5.769531 4.296875 -5.886719 4.167969 -5.984375 C 4.035156 -6.078125 3.863281 -6.125 3.652344 -6.125 C 3.460938 -6.125 3.300781 -6.097656 3.171875 -6.042969 C 3.046875 -5.992188 2.941406 -5.933594 2.863281 -5.878906 C 2.878906 -5.792969 2.914062 -5.660156 2.976562 -5.480469 C 3.035156 -5.304688 3.066406 -5.132812 3.066406 -4.96875 C 3.066406 -4.894531 3.046875 -4.800781 3.007812 -4.691406 C 2.96875 -4.578125 2.910156 -4.492188 2.835938 -4.425781 C 2.738281 -4.339844 2.625 -4.273438 2.5 -4.226562 C 2.378906 -4.175781 2.1875 -4.152344 1.929688 -4.152344 C 1.566406 -4.152344 1.289062 -4.242188 1.101562 -4.417969 C 0.914062 -4.59375 0.820312 -4.820312 0.820312 -5.105469 C 0.820312 -5.347656 0.917969 -5.566406 1.109375 -5.757812 C 1.304688 -5.953125 1.539062 -6.109375 1.816406 -6.238281 C 2.089844 -6.367188 2.40625 -6.46875 2.761719 -6.539062 C 3.117188 -6.609375 3.445312 -6.648438 3.75 -6.648438 C 4.171875 -6.648438 4.558594 -6.621094 4.910156 -6.570312 C 5.261719 -6.523438 5.578125 -6.417969 5.859375 -6.261719 C 6.128906 -6.109375 6.34375 -5.890625 6.5 -5.601562 C 6.660156 -5.3125 6.738281 -4.9375 6.738281 -4.472656 C 6.738281 -3.980469 6.726562 -3.402344 6.707031 -2.726562 C 6.6875 -2.054688 6.679688 -1.613281 6.679688 -1.398438 C 6.679688 -1.203125 6.707031 -1.050781 6.765625 -0.9375 C 6.824219 -0.824219 6.917969 -0.738281 7.039062 -0.683594 C 7.113281 -0.648438 7.226562 -0.628906 7.386719 -0.621094 C 7.542969 -0.617188 7.6875 -0.613281 7.820312 -0.613281 L 7.820312 -0.136719 M 4.589844 -3.527344 C 4.347656 -3.445312 4.105469 -3.351562 3.863281 -3.246094 C 3.625 -3.136719 3.429688 -3.027344 3.277344 -2.910156 C 3.117188 -2.785156 2.988281 -2.632812 2.898438 -2.441406 C 2.804688 -2.253906 2.761719 -2.03125 2.761719 -1.773438 C 2.761719 -1.433594 2.835938 -1.1875 2.992188 -1.035156 C 3.148438 -0.882812 3.335938 -0.808594 3.5625 -0.808594 C 3.804688 -0.808594 4 -0.855469 4.15625 -0.953125 C 4.308594 -1.050781 4.445312 -1.171875 4.5625 -1.316406 Z "/>
</g>
<g id="glyph-0-4">
<path d="M 8.972656 0 L 5.058594 0 L 5.058594 -0.476562 C 5.140625 -0.484375 5.242188 -0.496094 5.359375 -0.507812 C 5.476562 -0.519531 5.5625 -0.542969 5.625 -0.574219 C 5.714844 -0.621094 5.78125 -0.691406 5.820312 -0.78125 C 5.859375 -0.871094 5.878906 -1.007812 5.878906 -1.183594 L 5.878906 -4.230469 C 5.878906 -4.675781 5.796875 -5.007812 5.632812 -5.230469 C 5.472656 -5.453125 5.230469 -5.566406 4.914062 -5.566406 C 4.738281 -5.566406 4.578125 -5.539062 4.425781 -5.488281 C 4.277344 -5.4375 4.128906 -5.359375 3.984375 -5.261719 C 3.859375 -5.171875 3.757812 -5.085938 3.683594 -4.992188 C 3.605469 -4.902344 3.542969 -4.820312 3.488281 -4.753906 L 3.488281 -1.257812 C 3.488281 -1.105469 3.511719 -0.976562 3.554688 -0.875 C 3.597656 -0.773438 3.667969 -0.695312 3.769531 -0.644531 C 3.839844 -0.605469 3.925781 -0.570312 4.03125 -0.539062 C 4.132812 -0.511719 4.234375 -0.488281 4.335938 -0.476562 L 4.335938 0 L 0.378906 0 L 0.378906 -0.476562 C 0.484375 -0.484375 0.59375 -0.496094 0.707031 -0.511719 C 0.816406 -0.527344 0.910156 -0.546875 0.988281 -0.574219 C 1.128906 -0.621094 1.222656 -0.695312 1.277344 -0.792969 C 1.328125 -0.894531 1.355469 -1.023438 1.355469 -1.183594 L 1.355469 -4.972656 C 1.355469 -5.109375 1.320312 -5.242188 1.25 -5.371094 C 1.179688 -5.5 1.089844 -5.609375 0.976562 -5.691406 C 0.898438 -5.742188 0.800781 -5.785156 0.679688 -5.820312 C 0.5625 -5.855469 0.429688 -5.878906 0.285156 -5.890625 L 0.285156 -6.367188 L 3.390625 -6.535156 L 3.488281 -6.4375 L 3.488281 -5.496094 L 3.515625 -5.496094 C 3.636719 -5.601562 3.785156 -5.734375 3.957031 -5.886719 C 4.132812 -6.039062 4.292969 -6.160156 4.441406 -6.257812 C 4.601562 -6.359375 4.8125 -6.449219 5.070312 -6.523438 C 5.332031 -6.597656 5.609375 -6.632812 5.90625 -6.632812 C 6.613281 -6.632812 7.144531 -6.433594 7.496094 -6.03125 C 7.851562 -5.628906 8.027344 -5.097656 8.027344 -4.433594 L 8.027344 -1.242188 C 8.027344 -1.082031 8.050781 -0.953125 8.097656 -0.859375 C 8.148438 -0.765625 8.234375 -0.6875 8.367188 -0.632812 C 8.433594 -0.601562 8.519531 -0.570312 8.625 -0.539062 C 8.726562 -0.511719 8.839844 -0.488281 8.972656 -0.476562 Z "/>
</g>
<g id="glyph-0-5">
<path d="M 3.390625 0.222656 C 2.972656 0.222656 2.558594 0.160156 2.15625 0.0351562 C 1.757812 -0.0859375 1.445312 -0.21875 1.222656 -0.359375 L 1.027344 0.0859375 L 0.519531 0.0859375 L 0.4375 -2.34375 L 0.910156 -2.34375 C 0.976562 -2.148438 1.085938 -1.929688 1.238281 -1.683594 C 1.390625 -1.4375 1.5625 -1.21875 1.757812 -1.023438 C 1.960938 -0.828125 2.195312 -0.660156 2.457031 -0.527344 C 2.71875 -0.394531 3 -0.324219 3.300781 -0.324219 C 3.695312 -0.324219 3.988281 -0.402344 4.183594 -0.554688 C 4.375 -0.710938 4.472656 -0.949219 4.472656 -1.269531 C 4.472656 -1.441406 4.429688 -1.585938 4.34375 -1.699219 C 4.253906 -1.8125 4.136719 -1.910156 3.984375 -1.992188 C 3.816406 -2.078125 3.628906 -2.152344 3.425781 -2.214844 C 3.226562 -2.273438 2.976562 -2.347656 2.683594 -2.433594 C 2.386719 -2.523438 2.132812 -2.609375 1.921875 -2.699219 C 1.714844 -2.789062 1.496094 -2.925781 1.269531 -3.117188 C 1.074219 -3.289062 0.917969 -3.492188 0.800781 -3.730469 C 0.683594 -3.96875 0.625 -4.253906 0.625 -4.582031 C 0.625 -5.195312 0.882812 -5.691406 1.394531 -6.066406 C 1.910156 -6.445312 2.585938 -6.632812 3.417969 -6.632812 C 3.8125 -6.632812 4.175781 -6.59375 4.507812 -6.511719 C 4.839844 -6.433594 5.121094 -6.34375 5.34375 -6.25 L 5.480469 -6.632812 L 5.976562 -6.632812 L 6.082031 -4.414062 L 5.625 -4.414062 C 5.472656 -4.867188 5.210938 -5.253906 4.84375 -5.582031 C 4.476562 -5.910156 4.078125 -6.074219 3.652344 -6.074219 C 3.316406 -6.074219 3.054688 -6.003906 2.863281 -5.867188 C 2.671875 -5.726562 2.578125 -5.535156 2.578125 -5.285156 C 2.578125 -4.957031 2.71875 -4.71875 2.996094 -4.570312 C 3.277344 -4.421875 3.667969 -4.285156 4.171875 -4.152344 C 4.945312 -3.953125 5.515625 -3.679688 5.875 -3.335938 C 6.234375 -2.992188 6.414062 -2.550781 6.414062 -2.019531 C 6.414062 -1.304688 6.132812 -0.753906 5.574219 -0.363281 C 5.019531 0.0273438 4.289062 0.222656 3.390625 0.222656 Z "/>
</g>
<g id="glyph-0-6">
<path d="M 4.492188 0 L 0.378906 0 L 0.378906 -0.476562 C 0.492188 -0.484375 0.601562 -0.496094 0.710938 -0.507812 C 0.816406 -0.519531 0.910156 -0.542969 0.988281 -0.574219 C 1.128906 -0.625 1.226562 -0.699219 1.28125 -0.796875 C 1.339844 -0.894531 1.367188 -1.023438 1.367188 -1.183594 L 1.367188 -4.972656 C 1.367188 -5.125 1.332031 -5.257812 1.261719 -5.375 C 1.195312 -5.488281 1.105469 -5.582031 1.003906 -5.652344 C 0.925781 -5.703125 0.804688 -5.753906 0.648438 -5.800781 C 0.488281 -5.847656 0.34375 -5.878906 0.214844 -5.890625 L 0.214844 -6.367188 L 3.40625 -6.535156 L 3.503906 -6.4375 L 3.503906 -1.269531 C 3.503906 -1.117188 3.535156 -0.988281 3.601562 -0.882812 C 3.664062 -0.777344 3.757812 -0.695312 3.878906 -0.644531 C 3.96875 -0.605469 4.0625 -0.570312 4.167969 -0.539062 C 4.269531 -0.511719 4.378906 -0.488281 4.492188 -0.476562 L 4.492188 0 M 3.542969 -8.878906 C 3.542969 -8.550781 3.414062 -8.269531 3.160156 -8.039062 C 2.90625 -7.804688 2.605469 -7.6875 2.257812 -7.6875 C 1.90625 -7.6875 1.605469 -7.804688 1.351562 -8.039062 C 1.097656 -8.269531 0.96875 -8.550781 0.96875 -8.878906 C 0.96875 -9.210938 1.097656 -9.492188 1.351562 -9.726562 C 1.605469 -9.960938 1.90625 -10.078125 2.257812 -10.078125 C 2.609375 -10.078125 2.914062 -9.960938 3.164062 -9.726562 C 3.414062 -9.492188 3.542969 -9.210938 3.542969 -8.878906 Z "/>
</g>
<g id="glyph-0-7">
<path d="M 7.023438 -5.691406 C 7.347656 -5.390625 7.589844 -5.03125 7.761719 -4.617188 C 7.929688 -4.199219 8.015625 -3.746094 8.015625 -3.261719 C 8.015625 -2.78125 7.929688 -2.324219 7.761719 -1.898438 C 7.597656 -1.46875 7.351562 -1.105469 7.03125 -0.800781 C 6.6875 -0.476562 6.277344 -0.226562 5.804688 -0.0507812 C 5.328125 0.121094 4.785156 0.207031 4.171875 0.207031 C 3.644531 0.207031 3.15625 0.132812 2.710938 -0.0195312 C 2.265625 -0.171875 1.871094 -0.398438 1.53125 -0.703125 C 1.199219 -0.992188 0.941406 -1.351562 0.75 -1.78125 C 0.558594 -2.207031 0.460938 -2.6875 0.460938 -3.214844 C 0.460938 -3.738281 0.546875 -4.199219 0.710938 -4.605469 C 0.878906 -5.011719 1.128906 -5.375 1.464844 -5.691406 C 1.785156 -5.992188 2.183594 -6.230469 2.652344 -6.394531 C 3.125 -6.5625 3.648438 -6.648438 4.230469 -6.648438 C 4.839844 -6.648438 5.375 -6.5625 5.835938 -6.394531 C 6.296875 -6.230469 6.695312 -5.992188 7.023438 -5.691406 M 5.359375 -1.179688 C 5.453125 -1.421875 5.523438 -1.714844 5.570312 -2.0625 C 5.613281 -2.410156 5.636719 -2.816406 5.636719 -3.273438 C 5.636719 -3.578125 5.617188 -3.925781 5.574219 -4.316406 C 5.53125 -4.707031 5.464844 -5.015625 5.378906 -5.242188 C 5.273438 -5.515625 5.128906 -5.730469 4.945312 -5.886719 C 4.761719 -6.042969 4.527344 -6.121094 4.246094 -6.121094 C 3.9375 -6.121094 3.691406 -6.035156 3.503906 -5.867188 C 3.320312 -5.695312 3.179688 -5.476562 3.078125 -5.207031 C 2.988281 -4.960938 2.925781 -4.671875 2.890625 -4.339844 C 2.855469 -4.007812 2.839844 -3.660156 2.839844 -3.300781 C 2.839844 -2.828125 2.855469 -2.4375 2.882812 -2.125 C 2.914062 -1.816406 2.988281 -1.503906 3.105469 -1.191406 C 3.207031 -0.921875 3.347656 -0.710938 3.535156 -0.554688 C 3.722656 -0.398438 3.957031 -0.320312 4.246094 -0.320312 C 4.503906 -0.320312 4.730469 -0.390625 4.914062 -0.539062 C 5.101562 -0.683594 5.25 -0.894531 5.359375 -1.179688 Z "/>
</g>
<g id="glyph-0-8">
</g>
<g id="glyph-0-9">
<path d="M 6.535156 -8.972656 C 6.535156 -8.863281 6.519531 -8.742188 6.484375 -8.613281 C 6.449219 -8.484375 6.394531 -8.371094 6.316406 -8.28125 C 6.222656 -8.171875 6.121094 -8.089844 6.007812 -8.035156 C 5.894531 -7.976562 5.726562 -7.949219 5.5 -7.949219 C 5.160156 -7.949219 4.890625 -8.070312 4.695312 -8.308594 C 4.5 -8.546875 4.289062 -8.941406 4.070312 -9.5 C 3.894531 -9.425781 3.753906 -9.234375 3.644531 -8.925781 C 3.539062 -8.621094 3.484375 -7.960938 3.484375 -6.945312 L 3.484375 -6.433594 L 5.28125 -6.433594 L 5.28125 -5.722656 L 3.496094 -5.722656 L 3.496094 -1.242188 C 3.496094 -1.074219 3.535156 -0.941406 3.613281 -0.847656 C 3.691406 -0.757812 3.792969 -0.6875 3.917969 -0.644531 C 4.023438 -0.609375 4.160156 -0.574219 4.328125 -0.542969 C 4.5 -0.511719 4.652344 -0.488281 4.785156 -0.476562 L 4.785156 0 L 0.382812 0 L 0.382812 -0.476562 C 0.496094 -0.484375 0.609375 -0.496094 0.714844 -0.507812 C 0.820312 -0.519531 0.917969 -0.542969 1 -0.574219 C 1.140625 -0.625 1.234375 -0.699219 1.285156 -0.796875 C 1.335938 -0.894531 1.359375 -1.023438 1.359375 -1.183594 L 1.359375 -5.722656 L 0.0390625 -5.722656 L 0.0390625 -6.433594 L 1.359375 -6.433594 C 1.359375 -6.894531 1.429688 -7.34375 1.5625 -7.78125 C 1.695312 -8.214844 1.90625 -8.605469 2.1875 -8.949219 C 2.460938 -9.285156 2.820312 -9.558594 3.269531 -9.765625 C 3.714844 -9.972656 4.242188 -10.078125 4.84375 -10.078125 C 5.382812 -10.078125 5.796875 -9.976562 6.09375 -9.773438 C 6.390625 -9.566406 6.535156 -9.300781 6.535156 -8.972656 Z "/>
</g>
<g id="glyph-0-10">
<path d="M 5.519531 2.136719 C 4.925781 2.058594 4.34375 1.882812 3.773438 1.609375 C 3.203125 1.335938 2.691406 0.949219 2.246094 0.457031 C 1.792969 -0.0390625 1.433594 -0.648438 1.160156 -1.371094 C 0.886719 -2.09375 0.75 -2.941406 0.75 -3.917969 C 0.75 -4.894531 0.886719 -5.746094 1.160156 -6.46875 C 1.433594 -7.191406 1.792969 -7.800781 2.246094 -8.292969 C 2.691406 -8.785156 3.203125 -9.167969 3.773438 -9.445312 C 4.34375 -9.71875 4.925781 -9.894531 5.519531 -9.972656 L 5.519531 -9.386719 C 4.699219 -9.234375 4.070312 -8.707031 3.632812 -7.800781 C 3.195312 -6.898438 2.976562 -5.601562 2.976562 -3.917969 C 2.976562 -2.234375 3.195312 -0.941406 3.632812 -0.0351562 C 4.070312 0.867188 4.699219 1.398438 5.519531 1.550781 Z "/>
</g>
<g id="glyph-0-11">
<path d="M 8.292969 -3.203125 L 5.214844 -3.203125 L 5.214844 -0.125 L 4.148438 -0.125 L 4.148438 -3.203125 L 1.066406 -3.203125 L 1.066406 -4.269531 L 4.148438 -4.269531 L 4.148438 -7.351562 L 5.214844 -7.351562 L 5.214844 -4.269531 L 8.292969 -4.269531 Z "/>
</g>
<g id="glyph-0-12">
<path d="M 8.144531 -3.183594 C 8.144531 -2.207031 7.820312 -1.398438 7.175781 -0.753906 C 6.53125 -0.113281 5.714844 0.207031 4.726562 0.207031 C 4.34375 0.207031 4.015625 0.179688 3.738281 0.125 C 3.464844 0.0742188 3.230469 0.0078125 3.039062 -0.0703125 C 2.839844 -0.152344 2.679688 -0.234375 2.5625 -0.316406 C 2.441406 -0.394531 2.347656 -0.460938 2.277344 -0.515625 L 1.347656 0.332031 L 0.964844 0.183594 C 0.984375 -0.132812 1.003906 -0.476562 1.019531 -0.847656 C 1.035156 -1.21875 1.042969 -1.722656 1.042969 -2.351562 L 1.042969 -8.445312 C 1.042969 -8.609375 1.007812 -8.761719 0.941406 -8.902344 C 0.875 -9.042969 0.785156 -9.152344 0.671875 -9.226562 C 0.589844 -9.277344 0.46875 -9.324219 0.308594 -9.363281 C 0.152344 -9.402344 0.00390625 -9.425781 -0.128906 -9.433594 L -0.128906 -9.910156 L 3.09375 -10.078125 L 3.191406 -9.972656 L 3.191406 -5.742188 L 3.230469 -5.742188 C 3.546875 -6.050781 3.871094 -6.277344 4.203125 -6.417969 C 4.539062 -6.5625 4.871094 -6.632812 5.207031 -6.632812 C 6.117188 -6.632812 6.832031 -6.324219 7.359375 -5.703125 C 7.882812 -5.082031 8.144531 -4.242188 8.144531 -3.183594 M 5.808594 -3.105469 C 5.808594 -3.433594 5.78125 -3.753906 5.734375 -4.058594 C 5.683594 -4.367188 5.597656 -4.636719 5.484375 -4.871094 C 5.367188 -5.105469 5.210938 -5.292969 5.019531 -5.433594 C 4.832031 -5.574219 4.59375 -5.644531 4.3125 -5.644531 C 4.050781 -5.644531 3.832031 -5.601562 3.65625 -5.515625 C 3.484375 -5.425781 3.328125 -5.300781 3.191406 -5.128906 L 3.191406 -1.339844 C 3.214844 -1.253906 3.265625 -1.140625 3.335938 -1 C 3.40625 -0.859375 3.480469 -0.75 3.554688 -0.671875 C 3.65625 -0.558594 3.769531 -0.472656 3.886719 -0.414062 C 4 -0.355469 4.167969 -0.324219 4.378906 -0.324219 C 4.820312 -0.324219 5.167969 -0.566406 5.425781 -1.050781 C 5.679688 -1.535156 5.808594 -2.21875 5.808594 -3.105469 Z "/>
</g>
<g id="glyph-0-13">
<path d="M 5.214844 -3.917969 C 5.214844 -2.941406 5.078125 -2.09375 4.804688 -1.371094 C 4.53125 -0.648438 4.167969 -0.0390625 3.71875 0.457031 C 3.269531 0.945312 2.761719 1.328125 2.191406 1.605469 C 1.621094 1.878906 1.039062 2.058594 0.441406 2.136719 L 0.441406 1.550781 C 1.261719 1.398438 1.890625 0.867188 2.332031 -0.0351562 C 2.769531 -0.941406 2.988281 -2.234375 2.988281 -3.917969 C 2.988281 -5.601562 2.769531 -6.898438 2.332031 -7.800781 C 1.890625 -8.707031 1.261719 -9.234375 0.441406 -9.386719 L 0.441406 -9.972656 C 1.039062 -9.894531 1.621094 -9.71875 2.191406 -9.445312 C 2.761719 -9.167969 3.269531 -8.785156 3.71875 -8.292969 C 4.167969 -7.800781 4.53125 -7.191406 4.804688 -6.46875 C 5.078125 -5.746094 5.214844 -4.894531 5.214844 -3.917969 Z "/>
</g>
<g id="glyph-0-14">
<path d="M 5.734375 -6.074219 C 5.921875 -5.953125 6.074219 -5.792969 6.191406 -5.601562 C 6.308594 -5.40625 6.367188 -5.164062 6.367188 -4.875 C 6.367188 -4.324219 6.089844 -3.867188 5.535156 -3.496094 C 4.984375 -3.128906 4.28125 -2.941406 3.425781 -2.941406 C 2.742188 -2.941406 2.160156 -3.082031 1.671875 -3.363281 C 1.1875 -3.640625 0.945312 -3.980469 0.945312 -4.382812 C 0.945312 -4.625 1.015625 -4.828125 1.15625 -4.992188 C 1.300781 -5.160156 1.5 -5.242188 1.753906 -5.242188 C 2.015625 -5.242188 2.226562 -5.171875 2.390625 -5.035156 C 2.554688 -4.898438 2.636719 -4.71875 2.636719 -4.492188 C 2.636719 -4.3125 2.613281 -4.144531 2.5625 -3.980469 C 2.511719 -3.816406 2.464844 -3.679688 2.421875 -3.566406 C 2.515625 -3.53125 2.625 -3.503906 2.742188 -3.484375 C 2.859375 -3.460938 2.96875 -3.449219 3.074219 -3.449219 C 3.257812 -3.449219 3.445312 -3.476562 3.636719 -3.527344 C 3.828125 -3.574219 3.984375 -3.652344 4.101562 -3.75 C 4.238281 -3.867188 4.347656 -4.011719 4.421875 -4.179688 C 4.496094 -4.351562 4.53125 -4.582031 4.53125 -4.878906 C 4.53125 -5.28125 4.445312 -5.578125 4.265625 -5.777344 C 4.09375 -5.976562 3.792969 -6.074219 3.371094 -6.074219 L 2.800781 -6.074219 L 2.800781 -6.679688 L 3.203125 -6.679688 C 3.59375 -6.679688 3.875 -6.785156 4.054688 -7 C 4.226562 -7.210938 4.316406 -7.542969 4.316406 -7.996094 C 4.316406 -8.304688 4.226562 -8.546875 4.054688 -8.71875 C 3.875 -8.898438 3.648438 -8.984375 3.371094 -8.984375 C 3.273438 -8.984375 3.167969 -8.976562 3.054688 -8.960938 C 2.945312 -8.945312 2.84375 -8.921875 2.746094 -8.886719 C 2.789062 -8.765625 2.835938 -8.625 2.886719 -8.46875 C 2.9375 -8.3125 2.960938 -8.136719 2.960938 -7.941406 C 2.960938 -7.71875 2.882812 -7.539062 2.726562 -7.410156 C 2.570312 -7.285156 2.363281 -7.21875 2.101562 -7.21875 C 1.859375 -7.21875 1.664062 -7.300781 1.511719 -7.464844 C 1.363281 -7.625 1.289062 -7.828125 1.289062 -8.066406 C 1.289062 -8.464844 1.527344 -8.804688 2.007812 -9.078125 C 2.488281 -9.355469 3.058594 -9.492188 3.71875 -9.492188 C 4.171875 -9.492188 4.554688 -9.445312 4.863281 -9.34375 C 5.171875 -9.25 5.417969 -9.117188 5.605469 -8.953125 C 5.777344 -8.804688 5.898438 -8.644531 5.964844 -8.472656 C 6.035156 -8.300781 6.066406 -8.152344 6.066406 -8.019531 C 6.066406 -7.882812 6.046875 -7.734375 6.003906 -7.582031 C 5.960938 -7.425781 5.878906 -7.285156 5.761719 -7.15625 C 5.652344 -7.027344 5.488281 -6.902344 5.261719 -6.78125 C 5.039062 -6.65625 4.777344 -6.566406 4.480469 -6.511719 L 4.480469 -6.4375 C 4.679688 -6.429688 4.894531 -6.394531 5.125 -6.335938 C 5.359375 -6.273438 5.5625 -6.1875 5.734375 -6.074219 Z "/>
</g>
</g>
</defs>
<g fill="rgb(100%, 100%, 100%)" fill-opacity="1">
<use xlink:href="#glyph-0-0" x="30" y="32.226562"/>
<use xlink:href="#glyph-0-1" x="40" y="32.226562"/>
<use xlink:href="#glyph-0-2" x="48" y="32.226562"/>
<use xlink:href="#glyph-0-3" x="57" y="32.226562"/>
<use xlink:href="#glyph-0-4" x="65" y="32.226562"/>
<use xlink:href="#glyph-0-5" x="74" y="32.226562"/>
<use xlink:href="#glyph-0-6" x="81" y="32.226562"/>
<use xlink:href="#glyph-0-7" x="86" y="32.226562"/>
<use xlink:href="#glyph-0-4" x="94" y="32.226562"/>
<use xlink:href="#glyph-0-8" x="103" y="32.226562"/>
<use xlink:href="#glyph-0-7" x="106" y="32.226562"/>
<use xlink:href="#glyph-0-9" x="114" y="32.226562"/>
<use xlink:href="#glyph-0-8" x="119" y="32.226562"/>
<use xlink:href="#glyph-0-8" x="122" y="32.226562"/>
<use xlink:href="#glyph-0-10" x="125" y="32.226562"/>
<use xlink:href="#glyph-0-3" x="131" y="32.226562"/>
<use xlink:href="#glyph-0-11" x="139" y="32.226562"/>
<use xlink:href="#glyph-0-12" x="148" y="32.226562"/>
<use xlink:href="#glyph-0-13" x="157" y="32.226562"/>
<use xlink:href="#glyph-0-14" x="163" y="32.226562"/>
</g>
</svg>
