<?xml version="1.0" encoding="UTF-8"?>
<svg xmlns="http://www.w3.org/2000/svg" xmlns:xlink="http://www.w3.org/1999/xlink" width="854" height="480" viewBox="0 0 854 480">
<defs>
<g>
<g id="glyph-0-0">
<path d="M 4.992188 0 L 2.78125 0 L 2.78125 -0.320312 C 2.929688 -0.339844 3.054688 -0.355469 3.15625 -0.371094 C 3.261719 -0.386719 3.3125 -0.429688 3.3125 -0.5 C 3.3125 -0.527344 3.296875 -0.574219 3.261719 -0.632812 C 3.230469 -0.695312 3.199219 -0.753906 3.164062 -0.804688 C 3.085938 -0.933594 2.972656 -1.101562 2.832031 -1.316406 C 2.6875 -1.53125 2.515625 -1.785156 2.308594 -2.082031 C 2.140625 -1.871094 1.984375 -1.664062 1.839844 -1.460938 C 1.695312 -1.261719 1.546875 -1.050781 1.390625 -0.824219 C 1.367188 -0.792969 1.34375 -0.75 1.320312 -0.703125 C 1.296875 -0.65625 1.28125 -0.613281 1.28125 -0.585938 C 1.28125 -0.515625 1.328125 -0.453125 1.421875 -0.40625 C 1.515625 -0.359375 1.65625 -0.328125 1.839844 -0.3125 L 1.839844 0 L 0.0585938 0 L 0.0585938 -0.304688 C 0.28125 -0.367188 0.457031 -0.445312 0.59375 -0.539062 C 0.726562 -0.632812 0.851562 -0.746094 0.964844 -0.882812 C 1.066406 -1.015625 1.207031 -1.195312 1.390625 -1.421875 C 1.570312 -1.652344 1.804688 -1.960938 2.089844 -2.355469 C 1.925781 -2.589844 1.722656 -2.878906 1.484375 -3.222656 C 1.242188 -3.566406 1.046875 -3.851562 0.890625 -4.078125 C 0.804688 -4.199219 0.707031 -4.300781 0.597656 -4.378906 C 0.488281 -4.453125 0.335938 -4.492188 0.136719 -4.492188 L 0.136719 -4.8125 L 2.230469 -4.8125 L 2.230469 -4.492188 C 2.128906 -4.492188 2.023438 -4.484375 1.925781 -4.472656 C 1.824219 -4.460938 1.773438 -4.429688 1.773438 -4.382812 C 1.773438 -4.355469 1.785156 -4.324219 1.804688 -4.289062 C 1.824219 -4.25 1.847656 -4.210938 1.875 -4.171875 C 1.949219 -4.058594 2.058594 -3.886719 2.210938 -3.65625 C 2.359375 -3.425781 2.523438 -3.183594 2.699219 -2.925781 C 2.8125 -3.082031 2.945312 -3.261719 3.097656 -3.472656 C 3.25 -3.679688 3.390625 -3.878906 3.515625 -4.066406 C 3.53125 -4.089844 3.542969 -4.117188 3.554688 -4.152344 C 3.570312 -4.1875 3.574219 -4.21875 3.574219 -4.253906 C 3.574219 -4.320312 3.519531 -4.375 3.40625 -4.417969 C 3.292969 -4.457031 3.1875 -4.484375 3.085938 -4.5 L 3.085938 -4.8125 L 4.863281 -4.8125 L 4.863281 -4.511719 C 4.613281 -4.445312 4.417969 -4.371094 4.277344 -4.28125 C 4.136719 -4.191406 4.019531 -4.085938 3.921875 -3.96875 C 3.8125 -3.835938 3.6875 -3.671875 3.539062 -3.476562 C 3.390625 -3.28125 3.183594 -3.007812 2.914062 -2.65625 C 3.210938 -2.238281 3.453125 -1.898438 3.636719 -1.628906 C 3.824219 -1.363281 4.011719 -1.089844 4.199219 -0.804688 C 4.292969 -0.664062 4.398438 -0.550781 4.515625 -0.464844 C 4.628906 -0.382812 4.789062 -0.335938 4.992188 -0.320312 Z "/>
</g>
<g id="glyph-0-1">
</g>
<g id="glyph-0-2">
<path d="M 5.726562 -2.425781 L 3.523438 -2.425781 L 3.523438 -0.226562 L 2.90625 -0.226562 L 2.90625 -2.425781 L 0.703125 -2.425781 L 0.703125 -3.039062 L 2.90625 -3.039062 L 2.90625 -5.238281 L 3.523438 -5.238281 L 3.523438 -3.039062 L 5.726562 -3.039062 Z "/>
</g>
<g id="glyph-0-3">
<path d="M 2.378906 1.78125 C 2.070312 1.78125 1.792969 1.742188 1.539062 1.667969 C 1.285156 1.589844 1.066406 1.488281 0.882812 1.359375 C 0.703125 1.226562 0.5625 1.078125 0.460938 0.90625 C 0.363281 0.738281 0.3125 0.566406 0.3125 0.386719 C 0.3125 0.226562 0.351562 0.0820312 0.429688 -0.046875 C 0.507812 -0.175781 0.632812 -0.238281 0.804688 -0.238281 C 1 -0.238281 1.148438 -0.191406 1.253906 -0.09375 C 1.355469 0 1.40625 0.109375 1.40625 0.234375 C 1.40625 0.339844 1.390625 0.46875 1.355469 0.628906 C 1.320312 0.789062 1.292969 0.902344 1.273438 0.972656 C 1.296875 1 1.339844 1.039062 1.398438 1.089844 C 1.460938 1.136719 1.535156 1.179688 1.621094 1.21875 C 1.726562 1.269531 1.835938 1.308594 1.949219 1.335938 C 2.0625 1.367188 2.226562 1.382812 2.433594 1.382812 C 2.628906 1.382812 2.816406 1.347656 3 1.285156 C 3.179688 1.21875 3.339844 1.113281 3.476562 0.972656 C 3.621094 0.820312 3.730469 0.648438 3.8125 0.445312 C 3.890625 0.246094 3.929688 -0.015625 3.929688 -0.34375 C 3.929688 -0.515625 3.910156 -0.691406 3.875 -0.863281 C 3.835938 -1.035156 3.765625 -1.1875 3.667969 -1.3125 C 3.566406 -1.441406 3.425781 -1.539062 3.253906 -1.609375 C 3.078125 -1.679688 2.855469 -1.714844 2.589844 -1.714844 L 1.949219 -1.714844 L 1.949219 -2.273438 L 2.375 -2.273438 C 2.824219 -2.273438 3.148438 -2.398438 3.347656 -2.648438 C 3.546875 -2.894531 3.648438 -3.265625 3.648438 -3.765625 C 3.648438 -4.171875 3.550781 -4.476562 3.359375 -4.683594 C 3.167969 -4.890625 2.894531 -4.996094 2.542969 -4.996094 C 2.371094 -4.996094 2.230469 -4.976562 2.121094 -4.933594 C 2.011719 -4.894531 1.925781 -4.851562 1.855469 -4.8125 C 1.773438 -4.769531 1.707031 -4.71875 1.65625 -4.664062 C 1.601562 -4.609375 1.5625 -4.566406 1.539062 -4.539062 C 1.5625 -4.4375 1.589844 -4.308594 1.621094 -4.15625 C 1.652344 -4.007812 1.671875 -3.863281 1.671875 -3.726562 C 1.671875 -3.605469 1.617188 -3.496094 1.515625 -3.402344 C 1.414062 -3.304688 1.261719 -3.257812 1.0625 -3.257812 C 0.890625 -3.257812 0.765625 -3.320312 0.6875 -3.441406 C 0.605469 -3.566406 0.566406 -3.710938 0.566406 -3.871094 C 0.566406 -4.042969 0.613281 -4.214844 0.707031 -4.390625 C 0.800781 -4.566406 0.941406 -4.730469 1.128906 -4.882812 C 1.3125 -5.035156 1.539062 -5.160156 1.804688 -5.253906 C 2.074219 -5.347656 2.382812 -5.394531 2.730469 -5.394531 C 3.128906 -5.394531 3.460938 -5.335938 3.722656 -5.21875 C 3.984375 -5.097656 4.191406 -4.953125 4.339844 -4.785156 C 4.488281 -4.617188 4.589844 -4.445312 4.644531 -4.261719 C 4.699219 -4.082031 4.726562 -3.925781 4.726562 -3.792969 C 4.726562 -3.632812 4.703125 -3.46875 4.65625 -3.304688 C 4.613281 -3.140625 4.539062 -2.988281 4.433594 -2.847656 C 4.320312 -2.695312 4.167969 -2.554688 3.980469 -2.429688 C 3.792969 -2.304688 3.558594 -2.203125 3.277344 -2.125 L 3.277344 -2.046875 C 3.457031 -2.03125 3.652344 -1.988281 3.859375 -1.921875 C 4.066406 -1.859375 4.253906 -1.761719 4.417969 -1.636719 C 4.589844 -1.503906 4.734375 -1.332031 4.84375 -1.121094 C 4.953125 -0.910156 5.007812 -0.644531 5.007812 -0.320312 C 5.007812 0.300781 4.757812 0.808594 4.257812 1.199219 C 3.757812 1.585938 3.128906 1.78125 2.378906 1.78125 Z "/>
</g>
<g id="glyph-0-4">
<path d="M 5.679688 -3.335938 L 0.75 -3.335938 L 0.75 -3.945312 L 5.679688 -3.945312 L 5.679688 -3.335938 M 5.679688 -1.519531 L 0.75 -1.519531 L 0.75 -2.128906 L 5.679688 -2.128906 Z "/>
</g>
<g id="glyph-0-5">
<path d="M 5.023438 -4.921875 L 1.546875 1.78125 L 0.933594 1.78125 L 4.207031 -4.417969 L 2.289062 -4.417969 C 2.007812 -4.417969 1.785156 -4.414062 1.625 -4.410156 C 1.464844 -4.402344 1.320312 -4.371094 1.1875 -4.316406 C 1.085938 -4.273438 0.996094 -4.164062 0.914062 -3.992188 C 0.835938 -3.816406 0.773438 -3.59375 0.734375 -3.324219 L 0.433594 -3.324219 L 0.433594 -5.238281 L 5.023438 -5.238281 Z "/>
</g>
</g>
</defs>
<g fill="rgb(100%, 100%, 100%)" fill-opacity="1">
<use xlink:href="#glyph-0-0" x="30" y="29.169922"/>
<use xlink:href="#glyph-0-1" x="35" y="29.169922"/>
<use xlink:href="#glyph-0-2" x="37" y="29.169922"/>
<use xlink:href="#glyph-0-1" x="43" y="29.169922"/>
<use xlink:href="#glyph-0-3" x="45" y="29.169922"/>
<use xlink:href="#glyph-0-1" x="51" y="29.169922"/>
<use xlink:href="#glyph-0-4" x="53" y="29.169922"/>
<use xlink:href="#glyph-0-1" x="59" y="29.169922"/>
<use xlink:href="#glyph-0-5" x="61" y="29.169922"/>
</g>
</svg>
